<svg xmlns="http://www.w3.org/2000/svg" xmlns:xlink="http://www.w3.org/1999/xlink" version="1.0" x="0px" y="0px" viewBox="0 0 100 125" enable-background="new 0 0 100 100" xml:space="preserve"><path d="M39.095,9.858V5.414c0-0.838,0.679-1.517,1.517-1.517c0.838,0,1.516,0.679,1.516,1.517v4.445  c0,0.837-0.678,1.517-1.516,1.517C39.774,11.375,39.095,10.696,39.095,9.858z M30.851,12.882c0.281,0.485,0.791,0.758,1.314,0.758  c0.258,0,0.519-0.065,0.757-0.204c0.725-0.419,0.974-1.346,0.555-2.071l-2.849-4.936c-0.419-0.727-1.348-0.974-2.072-0.556  C27.831,6.292,27.582,7.22,28,7.945L30.851,12.882z M18.512,15.747l6.709,3.874c0.239,0.138,0.499,0.203,0.757,0.203  c0.523,0,1.033-0.271,1.314-0.758c0.419-0.726,0.171-1.653-0.555-2.072l-6.709-3.874c-0.725-0.419-1.653-0.17-2.072,0.555  S17.787,15.328,18.512,15.747z M19.27,28.271h4.446c0.837,0,1.516-0.679,1.516-1.517s-0.679-1.517-1.516-1.517H19.27  c-0.837,0-1.517,0.679-1.517,1.517S18.433,28.271,19.27,28.271z M55.992,26.754c0,0.837,0.678,1.517,1.516,1.517l5.559,0.001  c0.838,0,1.516-0.679,1.516-1.517c0-0.838-0.678-1.517-1.516-1.517l-5.559,0C56.67,25.238,55.992,25.917,55.992,26.754z   M53.93,19.063c0.281,0.487,0.791,0.759,1.316,0.759c0.258,0,0.518-0.065,0.756-0.203l4.801-2.771  c0.727-0.419,0.973-1.347,0.555-2.072c-0.416-0.725-1.344-0.975-2.07-0.555l-4.801,2.771C53.762,17.411,53.512,18.338,53.93,19.063z   M48.301,13.434c0.239,0.138,0.499,0.204,0.757,0.204c0.523,0,1.035-0.271,1.314-0.758l4.946-8.566  c0.42-0.726,0.172-1.652-0.555-2.071c-0.725-0.42-1.652-0.17-2.07,0.555l-4.947,8.566C47.327,12.088,47.576,13.015,48.301,13.434z   M82.246,53.637v20.675c0,0.187-0.033,0.369-0.098,0.541c-0.297,0.776-7.246,19.016-7.617,19.903  c-0.846,2.037-2.342,3.206-4.105,3.206H41.033c-3.551,0-3.826-1.682-3.826-4.057c0-0.833-0.001-1.871-0.004-2.813  c0-0.011-0.001-0.017-0.001-0.027c0-0.007,0.001-0.015,0.001-0.023c0-0.244,0-0.482,0-0.707c-0.002-0.809-0.268-1.807-0.646-2.427  C34.5,84.531,24.071,67.416,20.701,61.993c-2.356-3.79-3.204-6.624-2.667-8.916c0.382-1.629,1.444-2.963,3.246-4.079  c3.925-2.432,7.111-1.474,11.726,3.937V26.131c0-4.193,3.412-7.605,7.605-7.605c4.194,0,7.605,3.412,7.605,7.605v10.523h4.631  c3.244,0,6.01,2.044,7.104,4.909h3.893c3.074,0,5.721,1.837,6.92,4.467h3.879C78.836,46.031,82.246,49.443,82.246,53.637z   M71.73,93.592c0.043-0.098,0.184-0.459,0.395-1.009H40.239c0.001,0.466,0.002,0.918,0.002,1.322c0,0.268,0,0.705,0.022,0.989  c0.151,0.019,0.392,0.034,0.77,0.034h29.393C71.123,94.929,71.602,93.905,71.73,93.592z M79.213,53.637  c0-2.522-2.049-4.572-4.57-4.572h-3.199c0,0.035,0.004,0.069,0.004,0.104v5.907c0,0.838-0.68,1.517-1.518,1.517  c-0.836,0-1.516-0.679-1.516-1.517v-5.907c0-2.521-2.051-4.572-4.57-4.572h-3.391v6.578c0,0.838-0.678,1.517-1.516,1.517  s-1.518-0.679-1.518-1.517V44.26c0-2.521-2.051-4.572-4.572-4.572h-4.631v11.485c0,0.838-0.679,1.517-1.517,1.517  c-0.838,0-1.516-0.679-1.516-1.517V26.131c0-2.521-2.051-4.572-4.572-4.572c-2.521,0-4.572,2.051-4.572,4.572v38.262  c0,0.838-0.679,1.517-1.517,1.517c-0.838,0-1.517-0.679-1.517-1.517v-6.583c-0.007-0.01-0.018-0.018-0.027-0.028  c-6.354-8.529-8.259-7.347-10.102-6.206c-1.443,0.894-1.77,1.681-1.89,2.193c-0.332,1.417,0.439,3.645,2.29,6.623  c3.377,5.434,13.812,22.56,15.87,25.937c0.543,0.893,0.917,2.073,1.04,3.221h33.104c1.752-4.576,4.523-11.846,5.922-15.516V53.637z"/></svg>